<?xml version="1.0" standalone="no"?>
<!DOCTYPE svg PUBLIC "-//W3C//DTD SVG 20010904//EN"
 "http://www.w3.org/TR/2001/REC-SVG-20010904/DTD/svg10.dtd">
<svg version="1.0" xmlns="http://www.w3.org/2000/svg"
 width="1000.000000pt" height="999.000000pt" viewBox="0 0 1000.000000 999.000000"
 preserveAspectRatio="xMidYMid meet">

<g transform="translate(0.000000,999.000000) scale(0.100000,-0.100000)"
fill="#000000" stroke="none">
<path d="M0 4995 l0 -4995 5000 0 5000 0 0 4995 0 4995 -5000 0 -5000 0 0
-4995z m5177 3754 c382 -32 758 -161 1071 -368 l112 -75 0 -213 c0 -184 2
-213 15 -213 62 0 440 -32 445 -38 3 -4 38 -56 78 -116 183 -278 305 -610 353
-966 15 -109 15 -419 0 -535 -42 -327 -154 -654 -316 -915 -370 -597 -953
-972 -1665 -1071 -113 -16 -422 -16 -540 0 -347 47 -639 149 -914 319 -581
359 -967 950 -1061 1622 -20 147 -23 447 -6 585 67 523 316 1015 693 1370 417
392 952 610 1535 623 40 1 130 -3 200 -9z m-2179 -5324 l52 -16 0 -99 0 -100
-40 0 c-42 0 -42 0 -53 90 -3 18 -37 28 -105 29 -85 2 -132 -33 -132 -97 0
-42 33 -66 135 -103 117 -41 136 -51 173 -93 53 -61 53 -178 0 -260 -27 -41
-87 -82 -143 -97 -51 -14 -194 -6 -262 16 l-53 16 0 99 0 100 34 0 c40 0 48
-10 56 -65 4 -31 10 -41 30 -46 44 -12 150 -9 185 5 41 17 55 42 55 94 0 53
-35 82 -132 112 -95 29 -140 52 -171 90 -39 45 -52 103 -39 168 17 82 66 137
151 169 46 17 186 11 259 -12z m600 -32 c-3 -43 -5 -47 -38 -58 l-35 -12 0
-269 0 -268 38 -9 c36 -9 37 -10 37 -53 l0 -44 -150 0 -150 0 0 40 c0 42 18
60 59 60 21 0 21 4 21 273 l0 273 -37 10 c-37 9 -38 11 -41 57 l-3 47 151 0
151 0 -3 -47z m496 10 c36 -58 232 -425 241 -451 6 -20 28 16 137 220 71 134
134 249 140 256 7 8 44 12 120 12 l109 0 -3 -47 c-3 -46 -4 -48 -41 -56 l-37
-9 2 -270 3 -270 35 -12 c32 -10 35 -15 38 -53 l3 -43 -150 0 -151 0 0 40 c0
43 18 60 64 60 l26 0 0 199 c0 110 3 207 7 217 4 11 3 15 -4 11 -6 -4 -55 -89
-108 -189 -54 -101 -109 -198 -122 -215 -25 -34 -57 -42 -93 -23 -10 5 -69
104 -132 220 -62 115 -115 210 -118 210 -3 0 -4 -97 -2 -215 l3 -215 32 0 c43
0 57 -15 57 -62 l0 -38 -150 0 -150 0 0 40 c0 42 18 60 59 60 21 0 21 4 21
274 l0 274 -37 9 c-37 8 -38 10 -41 56 l-3 47 110 0 111 0 24 -37z m1474 8
c99 -44 137 -113 130 -236 -4 -95 -37 -146 -121 -189 -50 -25 -71 -30 -162
-34 l-105 -5 0 -79 c0 -54 4 -80 13 -82 6 -3 24 -7 40 -10 25 -6 27 -10 27
-51 l0 -45 -150 0 -150 0 0 38 c0 45 14 62 52 62 l28 0 0 280 0 280 -28 0
c-38 0 -52 17 -52 63 l0 39 213 -4 c197 -3 216 -5 265 -27z m650 -18 c-3 -46
-4 -48 -38 -53 l-35 -5 -3 -267 -2 -268 124 0 125 0 3 28 c3 23 8 27 41 30
l37 3 0 -90 0 -91 -275 0 -275 0 0 39 c0 42 12 57 50 63 l25 3 0 275 0 275
-25 3 c-38 6 -50 21 -50 63 l0 39 151 0 150 0 -3 -47z m1062 -54 l0 -100 -37
3 c-36 3 -39 6 -47 46 l-10 42 -123 0 -123 0 0 -105 0 -105 130 0 130 0 0 -55
0 -55 -130 0 -130 0 0 -110 0 -110 123 0 123 0 10 43 c8 39 11 42 47 45 l37 3
0 -100 0 -101 -281 0 -280 0 3 42 c3 40 5 43 41 51 l37 9 0 277 0 277 -37 10
c-36 8 -38 12 -41 52 l-3 42 280 0 281 0 0 -101z m1301 -1079 c30 -6 78 -17
107 -25 l52 -16 0 -99 0 -100 -34 0 c-40 0 -48 10 -56 65 -5 38 -7 40 -55 51
-66 16 -146 17 -202 2 -69 -17 -136 -86 -158 -162 -42 -143 9 -290 120 -349
48 -26 180 -30 233 -8 32 13 32 14 32 82 l0 68 -57 3 -58 3 -3 53 -3 52 126 0
126 0 -3 -157 -3 -158 -50 -27 c-86 -46 -239 -61 -343 -34 -191 51 -300 231
-271 445 33 235 234 361 500 311z m-7227 -37 c36 -58 232 -425 241 -451 6 -20
28 16 137 220 71 134 134 249 140 256 7 8 44 12 120 12 l109 0 -3 -47 c-3 -46
-4 -48 -41 -56 l-37 -9 2 -270 3 -270 35 -12 c32 -10 35 -15 38 -53 l3 -43
-150 0 -151 0 0 40 c0 43 18 60 64 60 l26 0 0 199 c0 110 3 207 7 217 4 11 3
15 -4 11 -6 -4 -55 -89 -108 -189 -54 -101 -109 -198 -122 -215 -25 -34 -57
-42 -93 -23 -10 5 -69 104 -132 220 -62 115 -115 210 -118 210 -3 0 -4 -97 -2
-215 l3 -215 32 0 c43 0 57 -15 57 -62 l0 -38 -150 0 -150 0 0 40 c0 42 18 60
59 60 21 0 21 4 21 274 l0 274 -37 9 c-37 8 -38 10 -41 56 l-3 47 110 0 111 0
24 -37z m1539 -293 l128 -325 40 -17 c35 -15 39 -20 39 -52 l0 -36 -130 0
-130 0 0 34 c0 24 7 39 20 49 l21 14 -21 57 -21 56 -153 0 -152 0 -18 -56
c-17 -55 -17 -56 3 -75 12 -12 21 -32 21 -49 l0 -30 -130 0 -130 0 0 35 c0 30
5 37 39 54 41 21 46 32 262 589 l32 83 76 -3 75 -3 129 -325z m862 302 c27
-13 60 -32 72 -44 60 -56 70 -192 19 -268 -14 -22 -49 -53 -76 -68 -44 -25
-48 -31 -35 -42 8 -7 45 -57 82 -111 51 -76 72 -99 89 -99 44 0 54 -10 54 -56
l0 -45 -87 3 -88 3 -91 139 c-51 76 -98 142 -105 147 -8 5 -31 9 -51 9 l-38 0
0 -95 c0 -68 4 -97 13 -99 6 -3 24 -7 40 -10 25 -6 27 -10 27 -51 l0 -45 -150
0 -150 0 0 38 c0 45 14 62 52 62 l28 0 0 280 0 280 -28 0 c-38 0 -52 17 -52
63 l0 39 213 -4 c196 -3 216 -5 262 -26z m685 -17 c0 -41 -2 -45 -27 -51 -16
-3 -34 -7 -40 -10 -9 -2 -13 -33 -13 -109 l0 -106 38 3 c34 3 44 12 120 107
77 95 82 104 68 120 -9 10 -16 34 -16 54 l0 37 140 0 140 0 0 -38 c0 -45 -14
-62 -51 -62 -23 0 -44 -21 -129 -125 -55 -69 -107 -125 -113 -125 -7 -1 -1
-10 12 -20 13 -11 69 -79 125 -152 82 -107 107 -133 132 -139 47 -9 54 -17 54
-60 l0 -39 -150 0 -150 0 0 41 c0 32 4 42 20 46 11 3 20 9 20 14 0 12 -135
187 -163 212 -11 10 -35 17 -58 17 l-40 0 3 -112 3 -111 35 -12 c32 -11 35
-16 38 -53 l3 -42 -151 0 -151 0 3 43 c3 39 5 43 41 51 l37 10 0 278 c0 274 0
278 -21 278 -41 0 -59 18 -59 60 l0 40 150 0 150 0 0 -45z m1180 -56 l0 -100
-37 3 c-36 3 -39 6 -47 46 l-10 42 -123 0 -123 0 0 -105 0 -105 130 0 130 0 0
-55 0 -55 -130 0 -130 0 0 -110 0 -110 123 0 123 0 10 43 c8 39 11 42 47 45
l37 3 0 -100 0 -101 -281 0 -280 0 3 42 c3 40 5 43 41 51 l37 9 0 277 0 277
-37 10 c-36 8 -38 12 -41 52 l-3 42 280 0 281 0 0 -101z m820 11 l0 -90 -40 0
c-37 0 -41 3 -46 30 l-6 30 -74 0 -74 0 0 -269 0 -269 34 -6 c37 -7 46 -21 46
-67 l0 -29 -155 0 -155 0 0 29 c0 46 9 60 46 67 l34 6 0 269 0 269 -74 0 -74
0 -7 -30 c-6 -27 -10 -30 -46 -30 l-39 0 0 90 0 90 315 0 315 0 0 -90z m478
43 c-3 -43 -5 -47 -38 -58 l-35 -12 0 -269 0 -268 38 -9 c36 -9 37 -10 37 -53
l0 -44 -150 0 -150 0 0 40 c0 42 18 60 59 60 21 0 21 4 21 273 l0 273 -37 10
c-37 9 -38 11 -41 57 l-3 47 151 0 151 0 -3 -47z m573 -200 c107 -135 199
-254 206 -262 10 -13 12 26 13 190 l0 205 -42 10 c-43 9 -43 9 -46 57 l-3 47
150 0 151 0 0 -39 c0 -42 -11 -56 -53 -66 l-27 -7 0 -325 0 -324 -57 3 -57 3
-191 243 c-106 134 -198 249 -206 257 -12 12 -14 -14 -11 -195 l3 -210 25 0
c46 0 64 -17 64 -60 l0 -40 -150 0 -150 0 0 40 c0 42 18 60 59 60 21 0 21 4
21 273 l0 273 -37 10 c-37 9 -38 11 -41 57 l-3 47 94 0 94 0 194 -247z"/>
<path d="M4844 8340 c-376 -31 -742 -183 -1039 -432 -467 -391 -720 -1010
-654 -1606 46 -423 220 -795 514 -1100 279 -290 626 -474 1030 -548 141 -26
469 -26 610 0 557 102 1029 431 1306 912 267 462 321 1025 147 1523 -42 120
-127 296 -193 397 l-56 86 -125 -121 -125 -120 -146 4 c-80 3 -147 6 -149 8
-2 2 47 70 108 153 234 313 280 376 267 368 -8 -4 -126 -94 -264 -200 -181
-140 -287 -230 -384 -327 l-133 -134 -52 35 c-67 46 -196 106 -271 127 -93 26
-312 31 -416 11 -160 -32 -307 -109 -431 -225 -96 -90 -155 -171 -209 -285
-62 -134 -81 -219 -82 -371 0 -193 44 -346 145 -500 240 -367 707 -510 1108
-341 270 114 463 345 537 644 25 99 22 302 -6 407 -25 96 -85 224 -142 306
l-42 59 123 130 c67 71 126 130 131 130 30 0 182 -241 230 -364 61 -158 81
-256 86 -431 9 -293 -54 -518 -211 -755 -175 -262 -434 -443 -756 -527 -132
-35 -363 -43 -510 -18 -438 73 -803 368 -974 785 -78 189 -107 468 -71 680 18
112 69 268 117 364 91 180 256 367 425 480 223 148 447 216 713 216 151 0 268
-19 407 -65 127 -42 197 -78 319 -161 l97 -65 -6 153 -6 153 121 122 121 121
-64 42 c-168 109 -420 210 -625 250 -184 35 -341 44 -520 30z m279 -1516 l47
-16 -135 -141 c-117 -123 -135 -146 -135 -175 0 -46 16 -71 56 -88 53 -22 84
-2 222 140 67 69 124 126 126 126 2 0 14 -23 26 -51 31 -73 26 -211 -10 -284
-129 -263 -511 -263 -640 0 -22 43 -25 64 -25 155 0 91 3 112 25 155 13 28 45
70 70 95 99 100 232 130 373 84z"/>
<path d="M5310 3195 l0 -135 70 0 c128 0 185 47 177 147 -6 88 -56 123 -177
123 l-70 0 0 -135z"/>
<path d="M2632 1967 c-29 -78 -52 -145 -52 -149 0 -5 50 -8 111 -8 85 0 110 3
107 13 -73 197 -102 273 -107 279 -3 3 -30 -57 -59 -135z"/>
<path d="M3500 2025 l0 -125 63 1 c83 0 126 17 154 58 46 68 18 160 -54 180
-21 6 -66 11 -100 11 l-63 0 0 -125z"/>
</g>
</svg>
